<!DOCTYPE svg PUBLIC "-//W3C//DTD SVG 1.1//EN" "http://www.w3.org/Graphics/SVG/1.1/DTD/svg11.dtd">
<!-- Uploaded to: SVG Repo, www.svgrepo.com, Transformed by: SVG Repo Mixer Tools -->
<svg height="800px" width="800px" version="1.1" id="Layer_1" xmlns="http://www.w3.org/2000/svg" xmlns:xlink="http://www.w3.org/1999/xlink" viewBox="0 0 390.271 390.271" xml:space="preserve" fill="#000000">
<g id="SVGRepo_bgCarrier" stroke-width="0"/>
<g id="SVGRepo_tracerCarrier" stroke-linecap="round" stroke-linejoin="round"/>
<g id="SVGRepo_iconCarrier"> <path style="fill:#194F82;" d="M390.206,131.168C390.206,58.57,331.119,0,259.038,0C186.44,0,127.354,59.087,127.354,131.168 C56.889,132.267,0,190.255,0,260.719c0,71.564,57.988,129.552,129.552,129.552c70.465,0,128.453-56.889,129.552-127.354 C331.119,262.853,390.206,203.766,390.206,131.168z M129.552,368.549c-59.604,0-107.83-48.226-107.83-107.83 s48.226-107.83,107.83-107.83c2.715,17.325,9.244,33.616,18.424,48.226c-3.232-0.517-6.529-1.099-9.762-1.099 c-24.372,0-39.046,14.093-37.947,39.046v16.808H87.273v20.622h12.994v22.691H87.79v21.657h84.04v-21.657h-45.511v-22.756h25.471 v-20.622h-25.471v-17.907c0.517-8.663,3.232-15.192,12.477-15.709c6.529,0,11.895,4.331,15.709,12.994l12.994-10.279 c18.941,18.424,43.378,31.418,70.465,35.749C237.382,320.323,189.156,368.549,129.552,368.549z M259.038,240.614 c-60.186,0-109.446-49.325-109.446-109.446S198.917,21.721,259.038,21.721s109.511,49.261,109.511,109.446 C367.968,191.871,319.224,240.614,259.038,240.614z"/> <path style="fill:#56ACE0;" d="M237.899,260.655c0,59.604-48.226,107.83-107.83,107.83c-60.186,0-108.412-48.226-108.412-107.83 s48.226-107.83,107.83-107.83c2.715,17.325,9.244,33.616,18.424,48.226c-3.232-0.517-6.529-1.099-9.762-1.099 c-24.372,0-39.046,14.093-37.947,39.046v16.808H87.208v20.558h12.994v22.82H87.79v21.657h84.04v-21.657h-45.511v-22.756h25.471 v-20.558h-25.471v-17.907c0.517-8.663,3.232-15.192,12.477-15.709c6.529,0,11.895,4.331,15.709,12.994l12.994-10.279 C186.44,243.329,210.812,256.323,237.899,260.655z"/> <path style="fill:#FFC10D;" d="M367.968,131.168c0-60.186-49.325-109.446-109.446-109.446S149.01,70.982,149.01,131.168 s49.325,109.446,109.511,109.446C319.224,240.614,367.968,191.871,367.968,131.168z"/> <g> <path style="fill:#194F82;" d="M259.038,0C186.44,0,127.354,59.087,127.354,131.168C56.889,132.267,0,190.255,0,260.719 c0,71.564,57.988,129.552,129.552,129.552c70.465,0,128.453-56.889,129.552-127.354c72.598,0,131.168-59.087,131.168-131.168 C390.206,59.087,331.119,0,259.038,0z M21.657,260.655c0-59.604,48.226-107.83,107.83-107.83 c2.715,17.325,9.244,33.616,18.424,48.226c-3.232-0.517-6.529-1.099-9.762-1.099c-24.372,0-39.046,14.093-37.947,39.046v16.808 H87.208v20.622h12.994v22.756H87.79v21.657h84.04v-21.657h-45.511v-22.756h25.471v-20.622h-25.471v-17.907 c0.517-8.663,3.232-15.192,12.477-15.709c6.529,0,11.895,4.331,15.709,12.994l12.994-10.279 c18.941,18.424,43.378,31.418,70.465,35.749c0,59.604-48.226,107.83-107.83,107.83C69.883,368.549,21.657,320.323,21.657,260.655z M149.592,131.168c0-60.186,49.325-109.446,109.446-109.446s109.511,49.261,109.511,109.446s-49.325,109.446-109.511,109.446 C198.335,240.614,149.592,191.871,149.592,131.168z"/> <path style="fill:#194F82;" d="M271.515,117.075V93.22c5.947,1.616,12.477,4.848,19.523,9.762l13.576-19.523 c-10.861-7.564-21.657-11.895-32.517-13.576v-8.145h-17.325v8.145c-19.523,2.715-31.418,12.994-33.616,34.133 c-0.517,18.941,12.477,27.669,33.616,33.616v24.372c-7.046-2.198-14.61-7.046-23.273-14.093l-15.192,18.424 c11.895,10.279,24.372,16.808,38.465,18.941v11.895h17.261v-11.378c21.139-2.715,34.715-15.192,34.715-34.133 C306.747,129.552,289.939,122.505,271.515,117.075z M253.608,111.644c-4.848-2.198-7.046-5.43-7.046-10.279 c0-4.848,2.198-7.564,7.046-9.244V111.644z M271.515,162.586v-20.04c4.848,1.616,8.145,4.331,8.145,10.279 C279.661,157.737,276.945,160.97,271.515,162.586z"/> <path style="fill:#194F82;" d="M40.663,118.691c5.947,0,10.861-4.848,10.861-10.861V51.459h56.889 c5.947,0,10.861-4.848,10.861-10.861s-4.848-10.861-10.861-10.861H40.663c-5.947,0-10.861,4.848-10.861,10.861v67.749 C29.802,113.778,34.651,118.691,40.663,118.691z"/> <path style="fill:#194F82;" d="M349.543,271.515c-5.947,0-10.861,4.848-10.861,10.861v56.372h-56.307 c-5.947,0-10.861,4.848-10.861,10.861c0,5.947,4.848,10.861,10.861,10.861h67.232c5.947,0,10.861-4.848,10.861-10.861v-67.232 C360.404,276.428,355.556,271.515,349.543,271.515z"/> </g> </g>
</svg>